# AST/ASF file generated using VICON BodyLanguage
# -----------------------------------------------
:version 1.10
:name VICON
:units
  mass 1.0
  length 0.45
  angle deg
:documentation
   .ast/.asf automatically generated from VICON data using
   VICON BodyBuilder and BodyLanguage model FoxedUp or BRILLIANT.MOD
:root
   order TX TY TZ RX RY RZ
   axis XYZ
   position 0 0 0  
   orientation 0 0 0 
:bonedata
  begin
     id 1 
     name lhipjoint
     direction 0.630082 -0.636569 0.44472 
     length 2.82754 
     axis 0 0 0  XYZ
  end
  begin
     id 2 
     name lfemur
     direction 0.34202 -0.939693 0  
     length 7.26371  
     axis 0 0 20  XYZ
    dof rx ry rz
    limits (-160.0 20.0)
           (-70.0 70.0)
           (-60.0 70.0)
  end
  begin
     id 3 
     name ltibia
     direction 0.34202 -0.939693 0   
     length 7.88616   
     axis 0 0 20   XYZ
    dof rx
    limits (-10.0 170.0)
  end
  begin
     id 4 
     name lfoot
     direction 0.0603448 -0.165796 0.984312   
     length 1.77861   
     axis -90 7.62852e-016 20   XYZ
    dof rx rz
    limits (-45.0 90.0)
           (-70.0 20.0)
  end
  begin
     id 5 
     name ltoes
     direction 1.53577e-011 -4.21876e-011 1   
     length 0.902235   
     axis -90 7.62852e-016 20   XYZ
    dof rx
    limits (-90.0 20.0)
  end
  begin
     id 6 
     name rhipjoint
     direction -0.656778 -0.61817 0.431866   
     length 2.9117  
     axis 0 0 0  XYZ 
  end
  begin
     id 7 
     name rfemur
     direction -0.34202 -0.939693 0   
     length 6.81603   
     axis 0 0 -20   XYZ
    dof rx ry rz
    limits (-160.0 20.0)
           (-70.0 70.0)
           (-70.0 60.0)
  end
  begin
     id 8 
     name rtibia
     direction -0.34202 -0.939693 0   
     length 8.05997   
     axis 0 0 -20   XYZ
    dof rx
    limits (-10.0 170.0)
 end
 begin
     id 9 
     name rfoot
     direction -0.0862404 -0.236944 0.967688   
     length 1.84899  
     axis -90 -7.62852e-016 -20   XYZ
    dof rx rz
    limits (-45.0 90.0)
           (-20.0 70.0)
  end
  begin
     id 10 
     name rtoes
     direction -1.53561e-011 -4.21798e-011 1   
     length 0.931579   
     axis -90 -7.62852e-016 -20   XYZ
    dof rx
    limits (-90.0 20.0)
  end
  begin
     id 11 
     name lowerback
     direction -0.0110203 0.991769 -0.127564   
     length 2.05686   
     axis 0 0 0   XYZ
    dof rx ry rz
    limits (-20.0 45.0)
           (-30.0 30.0)
           (-30.0 30.0)
  end
  begin
     id 12 
     name upperback
     direction 0.0109719 0.99993 -0.00432479   
     length 2.06234   
     axis 0 0 0   XYZ
    dof rx ry rz
    limits (-20.0 45.0)
           (-30.0 30.0)
           (-30.0 30.0)
  end
  begin
     id 13 
     name thorax
     direction 0.0173308 0.998351 0.0547306   
     length 2.09856   
     axis 0 0 0   XYZ
    dof rx ry rz
    limits (-20.0 45.0)
           (-30.0 30.0)
           (-30.0 30.0)
  end
  begin
     id 14 
     name lowerneck
     direction -0.0311736 0.989033 0.144366   
     length 1.98151   
     axis 0 0 0   XYZ
    dof rx ry rz
    limits (-20.0 45.0)
           (-30.0 30.0)
           (-30.0 30.0)
  end
  begin
     id 15 
     name upperneck
     direction 0.0421057 0.975772 -0.214698   
     length 2.01457   
     axis 0 0 0   XYZ
    dof rx ry rz
    limits (-20.0 45.0)
           (-30.0 30.0)
           (-30.0 30.0)
  end
  begin
     id 16
     name head
     direction 0.0136911 0.995958 -0.0887718  
     length 2.03562  
     axis 0 0 0   XYZ
    dof rx ry rz
    limits (-20.0 45.0)
           (-30.0 30.0)
           (-30.0 30.0)
  end
  begin
     id 17 
     name lclavicle
     direction 0.915335 0.396201 0.0720134  
     length 4.16217  
     axis 0 0 0   XYZ
    dof ry rz
    limits (-20.0 10.0)
           (0.0 20.0)
  end
  begin
     id 18 
     name lhumerus
     direction 1 -4.48965e-011 6.383e-018   
     length 4.93042   
     axis -180 -30 -90   XYZ
    dof rx ry rz
    limits (-60.0 90.0)
           (-90.0 90.0)
           (-90.0 90.0)
  end
  begin
     id 19
     name lradius
     direction 1 -4.48972e-011 8.8689e-027   
     length 3.68177   
     axis -180 -30 -90   XYZ
    dof rx
    limits (-10.0 170.0)
  end
  begin
     id 20
     name lwrist
     direction 1 -4.48953e-011 1.17971e-026   
     length 1.84089   
     axis -7.69454e-015 90 90   XYZ
    dof ry
    limits (-180.0 0.0)
 end
  begin
     id 21 
     name lhand
     direction 1 -4.49027e-011 2.35802e-026   
     length 0.721479   
     axis -1.50533e-014 90 90   XYZ
    dof rx rz
    limits (-90.0 90.0)
           (-45.0 45.0)
  end
  begin
     id 22 
     name lfingers
     direction 1 -4.48915e-011 4.72027e-026   
     length 0.581675   
     axis -3.01059e-014 90 90   XYZ
    dof rx
    limits (0.0 90.0)
  end
  begin
     id 23
     name lthumb
     direction 0.707107 -6.34948e-011 0.707107   
     length 0.835172   
     axis -90 45 -5.12164e-014   XYZ
    dof rx rz
    limits (-45.0 45.0)
           (-45.0 45.0)
  end
  begin
     id 24 
     name rclavicle
     direction -0.882781 0.469197 0.0234974   
     length 3.95647  
     axis 0 0 0   XYZ 
    dof ry rz
    limits (-10.0 20.0)
           (-20.0 0.0)
  end
  begin
     id 25 
     name rhumerus
     direction -1 -4.48965e-011 -1.54906e-018  
     length 5.07905   
     axis -180 30 90   XYZ
    dof rx ry rz
    limits (-90.0 60.0)
           (-90.0 90.0)
           (-90.0 90.0)
  end
  begin
     id 26 
     name rradius
     direction -1 -4.48972e-011 5.47489e-027   
     length 3.54394   
     axis -180 30 90   XYZ
    dof rx
    limits (-10.0 170.0)
  end
  begin
     id 27 
     name rwrist
     direction -1 -4.48955e-011 1.17969e-026   
     length 1.77197   
     axis -7.69454e-015 -90 -90   XYZ
    dof ry
    limits (-180.0 0.0)
  end
  begin
     id 28
     name rhand
     direction -1 -4.48982e-011 2.35888e-026   
     length 0.681156   
     axis -1.50533e-014 -90 -90   XYZ
    dof rx rz
    limits (-90.0 90.0)
           (-45.0 45.0)
  end
  begin
     id 29
     name rfingers
     direction -1 -4.48955e-011 4.71877e-026   
     length 0.549165   
     axis -3.01059e-014 -90 -90   XYZ
    dof rx
    limits (0.0 90.0)
  end
  begin
     id 30
     name rthumb
     direction -0.707107 -6.3491e-011 0.707107   
     length 0.788495   
     axis -90 -45 5.12164e-014   XYZ
    dof rx rz
    limits (-45.0 45.0)
           (-45.0 45.0)
  end
:hierarchy
  begin
    root lhipjoint rhipjoint lowerback
    lhipjoint lfemur
    lfemur ltibia
    ltibia lfoot
    lfoot ltoes
    rhipjoint rfemur
    rfemur rtibia
    rtibia rfoot
    rfoot rtoes
    lowerback upperback
    upperback thorax
    thorax lowerneck lclavicle rclavicle
    lowerneck upperneck
    upperneck head
    lclavicle lhumerus
    lhumerus lradius
    lradius lwrist
    lwrist lhand lthumb
    lhand lfingers
    rclavicle rhumerus
    rhumerus rradius
    rradius rwrist
    rwrist rhand rthumb
    rhand rfingers
  end

#!OML:ASF H:\Bending\Project 1\Capture day 1\Session 1\Subject.ASF
:FULLY-SPECIFIED
:DEGREES
32
root -10.4399 17.9255 -16.3363 -130.752 88.4521 -133.239
lowerback 7.24487 -0.335541 0.745398
upperback -1.61949 -0.24307 2.0877
thorax -5.75097 -0.0995783 1.78564
lowerneck -24.3032 -4.04659 -5.24385
upperneck 36.5984 -3.81053 2.11528
head 17.8528 -1.66095 1.14381
rclavicle -1.16786e-015 -6.36111e-015
rhumerus -35.8062 -2.03568 -78.2457
rradius 27.1399
rwrist 26.8258
rhand -16.1582 -11.8295
rfingers 7.12502
rthumb 10.0475 -41.5697
lclavicle -1.16786e-015 -6.36111e-015
lhumerus -32.9402 8.02693 88.9825
lradius 23.6318
lwrist 12.5415
lhand -30.788 8.99789
lfingers 7.12502
lthumb -4.07841 38.9386
rfemur 6.44921 -9.86173 13.3103
rtibia -1.74931e-014
rfoot -8.80309 -12.2899
rtoes 4.06675
lfemur -7.76639 -15.8324 -9.91212
ltibia 20.6615
lfoot -19.5926 10.305
ltoes -16.8281
33
root -10.4425 17.9279 -16.3346 -132.754 88.4428 -135.339
lowerback 7.40498 -0.357242 0.720255
upperback -1.59137 -0.271027 2.09874
thorax -5.81178 -0.112136 1.81625
lowerneck -24.2871 -4.08934 -5.36926
upperneck 36.5934 -3.86294 2.22166
head 17.8568 -1.68398 1.20318
rclavicle 1.31695e-015 1.35174e-014
rhumerus -35.7909 -1.49845 -78.4297
rradius 27.3235
rwrist 26.4039
rhand -16.2428 -12.1158
rfingers 7.12502
rthumb 9.96592 -41.8598
lclavicle 1.31695e-015 1.35174e-014
lhumerus -32.7946 7.84724 89.1759
lradius 23.7516
lwrist 12.6904
lhand -30.794 9.06172
lfingers 7.12502
lthumb -4.08422 39.0023
rfemur 6.34766 -9.92138 13.2992
rtibia 2.70347e-014
rfoot -8.8002 -12.2709
rtoes 4.10926
lfemur -7.87249 -15.917 -9.90892
ltibia 20.6063
lfoot -19.5723 10.3625
ltoes -16.8554
34
root -10.4466 17.9317 -16.3329 -133.957 88.4295 -136.669
lowerback 7.56883 -0.381262 0.690913
upperback -1.56619 -0.301436 2.12301
thorax -5.87765 -0.125368 1.8636
lowerneck -24.2659 -4.10252 -5.45583
upperneck 36.5747 -3.87426 2.29413
head 17.8473 -1.69049 1.2491
rclavicle -1.19271e-015 1.19271e-014
rhumerus -35.7327 -1.14965 -78.5275
rradius 27.4308
rwrist 26.188
rhand -16.3885 -12.2172
rfingers 7.12502
rthumb 9.82534 -41.968
lclavicle -1.19271e-015 1.19271e-014
lhumerus -32.6411 7.66117 89.3663
lradius 23.8649
lwrist 12.8531
lhand -30.7797 9.08862
lfingers 7.12502
lthumb -4.07039 39.0295
rfemur 6.20238 -9.97138 13.3134
rtibia -4.77083e-015
rfoot -8.78831 -12.2543
rtoes 4.22388
lfemur -8.02513 -15.9541 -9.87563
ltibia 20.5664
lfoot -19.5327 10.3996
ltoes -16.9976
35
root -10.4521 17.937 -16.3314 -133.852 88.4188 -136.723
lowerback 7.73466 -0.396582 0.671729
upperback -1.54264 -0.318458 2.15653
thorax -5.94671 -0.132041 1.91343
lowerneck -24.2394 -4.0918 -5.48392
upperneck 36.5493 -3.8528 2.31128
head 17.8269 -1.684 1.26652
rclavicle -2.98177e-016 1.98785e-015
rhumerus -35.598 -1.10872 -78.504
rradius 27.3986
rwrist 26.277
rhand -16.599 -12.1301
rfingers 7.12502
rthumb 9.62228 -41.8904
lclavicle -2.98177e-016 1.98785e-015
lhumerus -32.4785 7.475 89.5479
lradius 23.9696
lwrist 13.006
lhand -30.7529 9.07627
lfingers 7.12502
lthumb -4.04449 39.0176
rfemur 6.00887 -9.99794 13.3607
rtibia 3.18055e-015
rfoot -8.77198 -12.2444
rtoes 4.39837
lfemur -8.22312 -15.95 -9.80668
ltibia 20.5454
lfoot -19.4814 10.4354
ltoes -17.2469
36
root -10.4588 17.9433 -16.3302 -132.408 88.4141 -135.461
lowerback 7.9073 -0.39166 0.682834
upperback -1.51716 -0.305384 2.18711
thorax -6.01863 -0.124931 1.93941
lowerneck -24.2136 -4.07687 -5.46438
upperneck 36.5319 -3.82817 2.28604
head 17.8079 -1.67553 1.25692
rclavicle 5.8393e-015 -1.39149e-014
rhumerus -35.3855 -1.37116 -78.3813
rradius 27.2192
rwrist 26.6351
rhand -16.8607 -11.938
rfingers 7.12502
rthumb 9.36976 -41.7097
lclavicle 5.8393e-015 -1.39149e-014
lhumerus -32.2984 7.28551 89.719
lradius 24.0555
lwrist 13.1138
lhand -30.7296 9.03427
lfingers 7.12502
lthumb -4.02205 38.976
rfemur 5.77494 -9.99652 13.4382
rtibia 4.77083e-015
rfoot -8.75211 -12.2447
rtoes 4.57027
lfemur -8.45403 -15.9318 -9.70809
ltibia 20.5416
lfoot -19.4328 10.4952
ltoes -17.5458
